/* XPM */
static char *a291e380d8334b8199ca17713025838b[] = {
/* columns rows colors chars-per-pixel */
"60 59 239 2 ",
"   c None",
".  c #0A0603",
"X  c #0E0904",
"o  c #0A0705",
"O  c #130C06",
"+  c #150F09",
"@  c #15110C",
"#  c #1B130A",
"$  c #181007",
"%  c #1C1A15",
"&  c #191616",
"*  c #23190F",
"=  c #26170B",
"-  c #261C12",
";  c #261D14",
":  c #321C0C",
">  c #2D2215",
",  c #2E2418",
"<  c #26211E",
"1  c #32261A",
"2  c #342A1C",
"3  c #392E1F",
"4  c #31210D",
"5  c #19272A",
"6  c #0F232A",
"7  c #2A2824",
"8  c #3C2E21",
"9  c #362E24",
"0  c #3D3223",
"q  c #3B352C",
"w  c #263538",
"e  c #383636",
"r  c #302F30",
"t  c #581809",
"y  c #522D16",
"u  c #7B3017",
"i  c #762F17",
"p  c #413526",
"a  c #45392A",
"s  c #493D2D",
"d  c #423728",
"f  c #433B33",
"g  c #55362F",
"h  c #6F3823",
"j  c #6D1D0C",
"k  c #76461F",
"l  c #4B4237",
"z  c #55483B",
"x  c #53553E",
"c  c #644B33",
"v  c #66523C",
"b  c #734E2F",
"n  c #7A622D",
"m  c #253941",
"M  c #413F49",
"N  c #39474C",
"B  c #2E4C53",
"V  c #355864",
"C  c #1E6C7D",
"Z  c #396C74",
"A  c #5D5245",
"S  c #5A595A",
"D  c #4B4C47",
"F  c #675A4A",
"G  c #685D52",
"H  c #6D6454",
"J  c #676356",
"K  c #736959",
"L  c #586A66",
"P  c #496A6D",
"I  c #6E6A63",
"U  c #777763",
"Y  c #6D7771",
"T  c #596161",
"R  c #8C3412",
"E  c #943E21",
"W  c #99461B",
"Q  c #9E5F1C",
"!  c #A24318",
"~  c #BB5517",
"^  c #A8551A",
"/  c #BA6D1D",
"(  c #9A4725",
")  c #9D5828",
"_  c #834835",
"`  c #8B5131",
"'  c #A75726",
"]  c #B85922",
"[  c #AE552C",
"{  c #986434",
"}  c #B86829",
"|  c #B96934",
" . c #B77A37",
".. c #AA6C32",
"X. c #C45716",
"o. c #D66A1B",
"O. c #D9731E",
"+. c #CC6E1D",
"@. c #E4751D",
"#. c #E36B19",
"$. c #C76928",
"%. c #CB7B2E",
"&. c #DC7C23",
"*. c #D87626",
"=. c #C57937",
"-. c #D47D36",
";. c #CE6F2C",
":. c #E37C23",
">. c #E87F26",
",. c #C25F21",
"<. c #906E50",
"1. c #B67748",
"2. c #A87A56",
"3. c #AE7248",
"4. c #857969",
"5. c #847972",
"6. c #957F6A",
"7. c #CC7C42",
"8. c #73877A",
"9. c #55807A",
"0. c #B78238",
"q. c #A68134",
"w. c #C88637",
"e. c #D98636",
"r. c #D7983A",
"t. c #D9882C",
"y. c #EC8324",
"u. c #ED8A27",
"i. c #EB8B2B",
"p. c #E58629",
"a. c #E48B39",
"s. c #E99339",
"d. c #F0932E",
"f. c #E7A63E",
"g. c #EBB03E",
"h. c #958356",
"j. c #B18A49",
"k. c #868A7B",
"l. c #968A73",
"z. c #B18E6F",
"x. c #BDA668",
"c. c #D98C47",
"v. c #CC9848",
"b. c #D29549",
"n. c #DB9655",
"m. c #CB884D",
"M. c #E6994A",
"N. c #E19850",
"B. c #D7A649",
"V. c #D8AA51",
"C. c #DDB756",
"Z. c #D2AB4B",
"A. c #E5AA4B",
"S. c #E9B74C",
"D. c #E7B856",
"F. c #F5BD54",
"G. c #F0B149",
"H. c #C59670",
"J. c #D5A666",
"K. c #D6B076",
"L. c #E2BA68",
"P. c #ECC253",
"I. c #ECC65B",
"U. c #F4C859",
"Y. c #ECC663",
"T. c #F2CD64",
"R. c #F0CC6B",
"E. c #23788A",
"W. c #287D8E",
"Q. c #1D7C91",
"!. c #5B7C80",
"~. c #268195",
"^. c #388C9A",
"/. c #3595A6",
"(. c #2D95AA",
"). c #39A8BB",
"_. c #2FA5BC",
"`. c #528D92",
"'. c #679996",
"]. c #738F8D",
"[. c #4499A6",
"{. c #5A9CA2",
"}. c #629AA3",
"|. c #47A7B7",
" X c #58AAB6",
".X c #59B1BB",
"XX c #56A5AA",
"oX c #68ACB6",
"OX c #72B0B5",
"+X c #6AA19F",
"@X c #58B8C6",
"#X c #48B3C4",
"$X c #65BBC7",
"%X c #79BCC4",
"&X c #6AC1CD",
"*X c #78C7D0",
"=X c #4CC1D2",
"-X c #8B9C9A",
";X c #8C9186",
":X c #A99C8B",
">X c #95A297",
",X c #88B9BB",
"<X c #91AEB0",
"1X c #B0B3AB",
"2X c #BFA489",
"3X c #C7A586",
"4X c #D4AB85",
"5X c #D6B693",
"6X c #E3BD97",
"7X c #D6B9A1",
"8X c #95C0BB",
"9X c #D9C592",
"0X c #E6C78F",
"qX c #C3C1B4",
"wX c #F6D5B5",
"eX c #F1CCA9",
"rX c #8FBCC1",
"tX c #8BC3CA",
"yX c #94C7CE",
"uX c #8CCCD5",
"iX c #81C6D1",
"pX c #98CDD3",
"aX c #8AD2DA",
"sX c #95D4DB",
"dX c #A6D3D8",
"fX c #B3D9DC",
"gX c #9CDCE4",
"hX c #A9DDE3",
"jX c #B0DFE3",
"kX c #B9E7EC",
"lX c #CCCFC4",
"zX c #C5E9EC",
"xX c #D4EFF1",
"cX c #D6F3F5",
"vX c #DEF6F8",
"bX c #C9EFF2",
"nX c #E3F9FA",
"mX c #ECFDFC",
"MX c #F1FEFE",
/* pixels */
"                                                                                                                        ",
"                                                            ^.    {.                                                    ",
"                                                      oXdXcXxXzXpX}.`.                                                  ",
"                                                  [.hXvXmXnXnXmXmXnXzXtX%X$XuXhX                                        ",
"                                                 XkXdX-X;X4.Y {.,XpXzXnXbXuX  sXuX                                      ",
"                                            /.iXgX Xg R ~ $.{ <.        jXcXkXoXtX                                      ",
"                                        $XuXzXkX  ].2.o.O.%.H.-.          aXcXcXtX                                      ",
"                                    kXnXvXzXhX  ^ H.n.*.w.v.L.v.0.            xXnXyX                                    ",
"                                sXcXvXyX}.    X.o.&.%.B.P.P.S.P.P.Z.          oXfXnXhX[.                                ",
"                              $XnXxXOX      ~ @.y.N.J.U.U.B.0.Z.S.P.Z.      |.    dXvXoXQ.            /.                ",
"                              sXvXOX        X.@.y.J.C.U.P.C.j.C.C.D.D.w.            zXzX~.          *X                  ",
"                              bXdX          ~ @.&.=.S.D.U.I.C.U.U.I.V.=.              cXoX^.        |.                  ",
"                            <XnXrX  [.^.Q.  ! m.=.} v.C.U.T.I.T.T.T.D. .              kXjXOX                /.          ",
"                            dXmX,X-X<XlXlX+X_ H.} ' =.A.U.T.Y.T.Y.V.B.}               hXnX,X                            ",
"                            yXMXdXW.  ;X1X7X_ ! ]  .^ | b.B.V.D.V.3.' E             @XuXmXrX                            ",
"                            pXmXcX[.        y R ] r.W W ' .. .0.3.2.`                 jXjX                              ",
"                            *XpXtX[.          j ) w.{ R E 3.2.z.3X2Xl               sXyXW.                              ",
"                                                ) j.B.r.{ z.7XwXwX5XI       [.  sX*X                                    ",
"                                                j.K.Y.V.v.2.5XwX7X:X1X-X-X].OXkXuX                                      ",
"                                      ~._.     .S.U.R.9XB. .k D b <.-XqX1Xl.8.|.                                        ",
"                                            W r.F.U.T.I.G.r.Q * > n Y z.:XI L `.        z.                              ",
"                                      *.o.X.w.L.U.U.D.A.r.r./ 4 9 c U Y <.v L 8.z.z.3X4Xz.                              ",
"                                +.e.n.*.~ } J.R.P.D.C.D.A.v.} 4 , z G 8.'.  C   Y 3XeX6X3X                              ",
"                              O.p.a.&.o.~ w.A.S.U.R.0XF.G.s.t.' k z F F T Z D   8.eXwXeX3X5.                            ",
"                            +.y.N.b.:.O.$.r.g.F.P.F.D.G.s.n.n.;.| ` ` ) { 1.W 0 :XeXwX6X4.Y h.                          ",
"                            :.u.p.=.m.} %.w.f.g.f.s.s.d.u.M.M.p.n.n.@.@.-.c.k 0 5.7X0X6.                                ",
"                            e.p.:.3.2.+.e.m. .3...} J.N.u.s.a.p.p.e.c.&.&./ p 1 l 5.                                    ",
"                            4Xa.$.` 3.$.4XH.| 1.=. .%.>.:.c.n.:.&.e.c.*.^ : O O % z                                     ",
"                            7.,.W ( [ [ 3.1.| =.=...y ~ #.#.-.=.o.~ ! W i > q q f F F v c                               ",
"                            ( ( <.[ | z.=.;.z.m...4 . : R ~ z.| R R u b u u F F K K H H F F F A D                       ",
"                        i ( ] $.m.&.c.K.i.i.b...8 @ @ & r g h t t t t   g F S I U U K K K H H F F v                     ",
"                      R X.*.:.y.y.i.i.i.p./ y e M D S T S e % . . . . . O     B     V P L J H H H H F                   ",
"                E.  ! 1.c.y.s.i.s.4Xn.&.    o X + % < ; @ X X X O O + # # # # % %               J K H                   ",
"            [.  g I <.k.a.M.6Xs.d.J.w.      . X O O # # # O + O O * 2 0 0 8 1 ; , ,         ~.      A c                 ",
"                `.l.h.w.u.s.M.u.p.          . O # > , 1 1 # # O O - 0 s s s s p , 1 2 -     E.                          ",
"              $X;X-.y.u.u.i.u.p.          . X $ , p 1 0 0 ; O O $ # * 1 d s s s a 2 , , %                               ",
"            @XoX>Xc.a.i.M.a.u.            X + , p a 1 p p * O # # # # # ; 0 a s s s 2 ; 5                               ",
"              /.'.m.K.a.6Xa.            . O ; p s a 1 a 0 # # # + O + # # * 1 0 d a 0 * 5                               ",
"                OX=.a.p.n.p.            X * 0 a s p 1 a 0 # + X X X O O O O # * , 1 > # @ XX                            ",
"              aXl.o.@.>.:.          X X O ; p s s 0 2 s 3 O . . . . X O O + # # * # O X     aX                          ",
"              &X;Xo.@.:.+.    @X  X O # # # 0 s s 2 3 a - X         7 h = X O $ + X .       sXiX                        ",
"                {.k.;.1.'.  #X    O O ; ; # 1 a a , 8 , O         w B _ k * . X o .         *X                          ",
"                  rX>Xk..X        X O ; 2 # * 3 8 - ; # O         r N 8 y q w 6 6                                       ",
"                  <.z.`.).        . X # 8 , # * * # # O X           V m < m B                                           ",
"                    X.    &X      4 O O ; 3 ; # $ $ O O               V S e & @                                         ",
"                          .X).  h.B.q.> + * 1 ; # O                   B w 7 7 e                                         ",
"                            &X8.Z.U.U.z.7 O # # # O                                                                     ",
"                            gX8XK.R.Z.n H 7 . O O                                                                       ",
"                  |.      =XOXx.0XL.x N ].l .           Q.                                                              ",
"                $X      .XY $.A.9Xh.9.4.+X                        _.                                                    ",
"                #X    _.z | n.%.4.!.U       [.[.                                                                        ",
"                *X        ) K.b N I                     *X$X                                                            ",
"                     X  q 8 5.k.P           ^.@X  $X.X    ).                                                            ",
"                |.    P 9 p 1 D Z       /.E.                                                                            ",
"                      V q a 2 w .X                                                                                      ",
"                      T Y z A S   [.            {.XX X[.  |.              |.        @X                                  ",
"                E.  % 9 A D D q     [.        [.            &X    @X(.            @X                                    ",
"                  C B e f l f 7           [.(.                @X$X          (.                                          ",
"                      N S I S B C                                                                                       "
};
